<svg xmlns="http://www.w3.org/2000/svg" width="960" height="632" viewBox="0 0 960 632"><rect width="960" height="632" fill="#dcdcd8"/><g font-family="Segoe UI, sans-serif" fill="#27282b"><text x="36" y="53" font-size="28" font-weight="600" letter-spacing="-1">EqyCord</text><text x="925" y="50" text-anchor="end" font-size="13" fill="#686867">Logo directions</text><g transform="translate(36 105)"><rect width="280" height="224" rx="18" fill="#ffffff80"/><text x="22" y="31" font-size="12" fill="#686867">01</text><text x="258" y="31" text-anchor="end" font-size="12" fill="#686867">Orbit</text><g transform="translate(96 49) scale(1.375)" color="#27282b"><ellipse cx="32" cy="32" rx="26" ry="13" transform="rotate(-36 32 32)" fill="none" stroke="currentColor" stroke-width="6"/><circle cx="32" cy="32" r="13" fill="currentColor"/><path d="M20 30c4-8 10-12 18-10" fill="none" stroke="white" stroke-width="2.5" stroke-linecap="round"/></g><g transform="translate(34 168) scale(.44)" color="#27282b"><ellipse cx="32" cy="32" rx="26" ry="13" transform="rotate(-36 32 32)" fill="none" stroke="currentColor" stroke-width="6"/><circle cx="32" cy="32" r="13" fill="currentColor"/><path d="M20 30c4-8 10-12 18-10" fill="none" stroke="white" stroke-width="2.5" stroke-linecap="round"/></g><text x="77" y="190" font-size="23" font-weight="600" letter-spacing="-.6">EqyCord</text></g><g transform="translate(340 105)"><rect width="280" height="224" rx="18" fill="#ffffff80"/><text x="22" y="31" font-size="12" fill="#686867">02</text><text x="258" y="31" text-anchor="end" font-size="12" fill="#686867">Link</text><g transform="translate(96 49) scale(1.375)" color="#27282b"><path d="M28 13H17L7 23v13l10 10h13l12-12V23L32 13h-4Zm-5 7h8l5 5v7L25 43h-7l-5-5V26l10-6Z" fill="currentColor" fill-rule="evenodd"/><path d="M36 51h11l10-10V28L47 18H34L22 30v11l10 10h4Zm5-7h-8l-5-5v-7l11-11h7l5 5v12l-10 6Z" fill="currentColor" fill-rule="evenodd"/></g><g transform="translate(34 168) scale(.44)" color="#27282b"><path d="M28 13H17L7 23v13l10 10h13l12-12V23L32 13h-4Zm-5 7h8l5 5v7L25 43h-7l-5-5V26l10-6Z" fill="currentColor" fill-rule="evenodd"/><path d="M36 51h11l10-10V28L47 18H34L22 30v11l10 10h4Zm5-7h-8l-5-5v-7l11-11h7l5 5v12l-10 6Z" fill="currentColor" fill-rule="evenodd"/></g><text x="77" y="190" font-size="23" font-weight="600" letter-spacing="-.6">EqyCord</text></g><g transform="translate(644 105)"><rect width="280" height="224" rx="18" fill="#ffffff80"/><text x="22" y="31" font-size="12" fill="#686867">03</text><text x="258" y="31" text-anchor="end" font-size="12" fill="#686867">Phantom</text><g transform="translate(96 49) scale(1.375)" color="#27282b"><path d="M12 50V28C12 15 20 7 32 7s20 8 20 21v22c0 3-3 4-5 2l-7-6-6 7c-1 2-3 2-4 0l-6-7-7 6c-2 2-5 1-5-2Z" fill="currentColor"/><path d="m22 28 7 3m13-3-7 3" stroke="white" stroke-width="3.5" stroke-linecap="round"/></g><g transform="translate(34 168) scale(.44)" color="#27282b"><path d="M12 50V28C12 15 20 7 32 7s20 8 20 21v22c0 3-3 4-5 2l-7-6-6 7c-1 2-3 2-4 0l-6-7-7 6c-2 2-5 1-5-2Z" fill="currentColor"/><path d="m22 28 7 3m13-3-7 3" stroke="white" stroke-width="3.5" stroke-linecap="round"/></g><text x="77" y="190" font-size="23" font-weight="600" letter-spacing="-.6">EqyCord</text></g><g transform="translate(36 349)"><rect width="280" height="224" rx="18" fill="#ffffff80"/><text x="22" y="31" font-size="12" fill="#686867">04</text><text x="258" y="31" text-anchor="end" font-size="12" fill="#686867">Fold</text><g transform="translate(96 49) scale(1.375)" color="#27282b"><path d="m7 23 25-16 25 16-25 17L7 23Z" fill="currentColor"/><path d="m7 29 25 17 25-17v12L32 58 7 41V29Z" fill="currentColor"/><path d="m32 17 11 7-11 8-11-8 11-7Z" fill="white"/></g><g transform="translate(34 168) scale(.44)" color="#27282b"><path d="m7 23 25-16 25 16-25 17L7 23Z" fill="currentColor"/><path d="m7 29 25 17 25-17v12L32 58 7 41V29Z" fill="currentColor"/><path d="m32 17 11 7-11 8-11-8 11-7Z" fill="white"/></g><text x="77" y="190" font-size="23" font-weight="600" letter-spacing="-.6">EqyCord</text></g><g transform="translate(340 349)"><rect width="280" height="224" rx="18" fill="#ffffff80"/><text x="22" y="31" font-size="12" fill="#686867">05</text><text x="258" y="31" text-anchor="end" font-size="12" fill="#686867">Pulse</text><g transform="translate(96 49) scale(1.375)" color="#27282b"><path d="M11 38V26m14 22V16m14 36V12m14 28V24" fill="none" stroke="currentColor" stroke-width="8" stroke-linecap="round" transform="skewX(-12) translate(7 0)"/></g><g transform="translate(34 168) scale(.44)" color="#27282b"><path d="M11 38V26m14 22V16m14 36V12m14 28V24" fill="none" stroke="currentColor" stroke-width="8" stroke-linecap="round" transform="skewX(-12) translate(7 0)"/></g><text x="77" y="190" font-size="23" font-weight="600" letter-spacing="-.6">EqyCord</text></g><g transform="translate(644 349)"><rect width="280" height="224" rx="18" fill="#ffffff80"/><text x="22" y="31" font-size="12" fill="#686867">06</text><text x="258" y="31" text-anchor="end" font-size="12" fill="#686867">Nexus</text><g transform="translate(96 49) scale(1.375)" color="#27282b"><path d="M11 9h17v18H9V11a2 2 0 0 1 2-2Zm25 0h17a2 2 0 0 1 2 2v16H36V9ZM9 36h19v19H11a2 2 0 0 1-2-2V36Zm27 0h19v17a2 2 0 0 1-2 2H36V36Z" fill="currentColor"/><path d="m32 25 7 7-7 7-7-7 7-7Z" fill="currentColor"/></g><g transform="translate(34 168) scale(.44)" color="#27282b"><path d="M11 9h17v18H9V11a2 2 0 0 1 2-2Zm25 0h17a2 2 0 0 1 2 2v16H36V9ZM9 36h19v19H11a2 2 0 0 1-2-2V36Zm27 0h19v17a2 2 0 0 1-2 2H36V36Z" fill="currentColor"/><path d="m32 25 7 7-7 7-7-7 7-7Z" fill="currentColor"/></g><text x="77" y="190" font-size="23" font-weight="600" letter-spacing="-.6">EqyCord</text></g></g></svg>